<?xml version="1.0" encoding="UTF-8" standalone="no"?>
<svg
   xmlns:dc="http://purl.org/dc/elements/1.1/"
   xmlns:cc="http://creativecommons.org/ns#"
   xmlns:rdf="http://www.w3.org/1999/02/22-rdf-syntax-ns#"
   xmlns:svg="http://www.w3.org/2000/svg"
   xmlns="http://www.w3.org/2000/svg"
   viewBox="0 0 262.53333 174.74667"
   height="174.74667"
   width="262.53333"
   xml:space="preserve"
   id="svg2"
   version="1.1"><metadata
     id="metadata8"><rdf:RDF><cc:Work
         rdf:about=""><dc:format>image/svg+xml</dc:format><dc:type
           rdf:resource="http://purl.org/dc/dcmitype/StillImage" /></cc:Work></rdf:RDF></metadata><defs
     id="defs6"><clipPath
       id="clipPath20"
       clipPathUnits="userSpaceOnUse"><path
         id="path18"
         d="m 328.512,372.996 c 148.496,663.874 765.778,899.734 1231.658,937.584 -471.7,-212.56 -553.22,-492.092 -547.38,-937.584 -14.524,122.18 -480.462,483.336 -684.278,0 z" /></clipPath><linearGradient
       id="linearGradient32"
       spreadMethod="pad"
       gradientTransform="matrix(845.723,1207.82,1207.82,-845.723,522.588,237.11)"
       gradientUnits="userSpaceOnUse"
       y2="0"
       x2="1"
       y1="0"
       x1="0"><stop
         id="stop22"
         offset="0"
         style="stop-opacity:1;stop-color:#3789b8" /><stop
         id="stop24"
         offset="0.139785"
         style="stop-opacity:1;stop-color:#3789b8" /><stop
         id="stop26"
         offset="0.548387"
         style="stop-opacity:1;stop-color:#54c8eb" /><stop
         id="stop28"
         offset="0.913979"
         style="stop-opacity:1;stop-color:#6ecfd4" /><stop
         id="stop30"
         offset="1"
         style="stop-opacity:1;stop-color:#6ecfd4" /></linearGradient><clipPath
       id="clipPath42"
       clipPathUnits="userSpaceOnUse"><path
         id="path40"
         d="m 1616.08,369.676 c -335.48,206.676 -533.17,173.73 -599.05,0 7.42,194.816 125.79,461.281 329.47,575.117 -14.97,-194.707 8.99,-251.609 269.58,-575.117 z" /></clipPath><linearGradient
       id="linearGradient54"
       spreadMethod="pad"
       gradientTransform="matrix(378.611,540.712,540.712,-378.611,1171.53,261.49)"
       gradientUnits="userSpaceOnUse"
       y2="0"
       x2="1"
       y1="0"
       x1="0"><stop
         id="stop44"
         offset="0"
         style="stop-opacity:1;stop-color:#2185b8" /><stop
         id="stop46"
         offset="0.145161"
         style="stop-opacity:1;stop-color:#2185b8" /><stop
         id="stop48"
         offset="0.548387"
         style="stop-opacity:1;stop-color:#63cceb" /><stop
         id="stop50"
         offset="0.994624"
         style="stop-opacity:1;stop-color:#7dd4d4" /><stop
         id="stop52"
         offset="1"
         style="stop-opacity:1;stop-color:#7dd4d4" /></linearGradient><clipPath
       id="clipPath64"
       clipPathUnits="userSpaceOnUse"><path
         id="path62"
         d="M 0,1310.58 V 0 h 1968.99 v 1310.58 z" /></clipPath></defs><g
     transform="matrix(1.3333333,0,0,-1.3333333,0,174.74667)"
     id="g10"><g
       transform="scale(0.1)"
       id="g12"><g
         id="g14"><g
           clip-path="url(#clipPath20)"
           id="g16"><path
             id="path34"
             style="fill:url(#linearGradient32);fill-opacity:1;fill-rule:nonzero;stroke:none"
             d="m 328.512,372.996 c 148.496,663.874 765.778,899.734 1231.658,937.584 -471.7,-212.56 -553.22,-492.092 -547.38,-937.584 -14.524,122.18 -480.462,483.336 -684.278,0" /></g></g><g
         id="g36"><g
           clip-path="url(#clipPath42)"
           id="g38"><path
             id="path56"
             style="fill:url(#linearGradient54);fill-opacity:1;fill-rule:nonzero;stroke:none"
             d="m 1616.08,369.676 c -335.48,206.676 -533.17,173.73 -599.05,0 7.42,194.816 125.79,461.281 329.47,575.117 -14.97,-194.707 8.99,-251.609 269.58,-575.117" /></g></g><g
         id="g58"><g
           clip-path="url(#clipPath64)"
           id="g60"><path
             id="path66"
             style="fill:#2f7faa;fill-opacity:1;fill-rule:nonzero;stroke:none"
             d="m 92.8945,142.621 h 49.3515 c 0.746,0 6.914,-0.371 6.914,-5.793 0,-2.617 -1.683,-4.297 -4.109,-5.047 -6.543,-2.062 -6.36,-3.179 -6.36,-10.101 V 23.7383 c 0,-6.9102 -0.183,-8.0391 6.36,-10.0977 2.426,-0.7422 4.109,-2.4297 4.109,-5.05076 0,-5.41796 -6.168,-5.78906 -6.914,-5.78906 H 89.3477 c -0.75,0 -6.918,0.3711 -6.918,5.78906 0,2.62106 1.6797,4.30856 4.1133,5.05076 6.5429,2.0586 6.3515,3.1875 6.3515,10.0977 z M 15.6992,95.3281 h 0.375 L 26.5391,64.4805 V 32.3281 C 29.5312,8.96875 41.4922,16.2617 41.4922,8.21875 c 0,-5.78906 -7.6641,-5.41797 -9.7188,-5.41797 H 10.4648 c -2.05855,0 -9.718706,-0.37109 -9.718706,5.41797 0,8.04295 11.964806,0.75 14.953106,24.10935 z M 7.84766,142.621 H 55.3281 l 20,-57.3905 h 0.3711 l 8.4102,31.0315 h 0.3789 V 82.25 L 60.7461,2.80078 h -5.418 L 16.2617,118.5 c -0.9336,2.809 -1.8711,5.609 -3.3672,8.039 -1.6836,2.801 -2.4297,5.051 -5.60934,5.242 C 5.04297,131.961 0,132.328 0,136.828 c 0,5.793 5.60547,5.793 7.84766,5.793" /><path
             id="path68"
             style="fill:#2f7faa;fill-opacity:1;fill-rule:nonzero;stroke:none"
             d="m 353.77,39.0586 h -27.293 l 2.617,10.8398 h 22.804 l -18.878,82.6326 2.429,10.09 h 41.309 L 404.797,24.4805 c 1.121,-5.2305 1.308,-8.7813 6.543,-11.0196 2.613,-1.1328 4.672,-2.4414 4.672,-5.80074 0,-5.03907 -6.731,-4.85938 -10.282,-4.85938 h -46.542 c -3.739,0 -9.161,0.3711 -9.161,5.23828 0,2.98044 1.125,3.92184 3.551,5.23044 4.863,2.8008 5.61,4.1094 3.926,11.4024 z M 333.766,95.3281 316.195,31.4102 C 313.207,20 315.82,16.8281 322.18,14.0117 c 2.992,-1.3125 5.601,-2.4219 5.601,-6.16014 0,-5.23047 -5.98,-5.05078 -9.715,-5.05078 H 296.57 c -3.738,0 -10.465,0.1875 -10.465,5.60938 0,4.48824 3.176,4.28904 7.29,6.35154 3.925,2.0664 8.968,6.3594 12.523,19.6289 l 22.426,82.0504 h 0.562 l 4.86,-21.1129" /><path
             id="path70"
             style="fill:#2f7faa;fill-opacity:1;fill-rule:nonzero;stroke:none"
             d="m 622.473,142.621 h 0.933 c 12.153,0 24.86,0.367 36.074,-5.051 12.528,-6.16 18.879,-16.449 19.071,-30.66 0.371,-21.4881 -13.832,-30.8397 -32.903,-35.3202 v -0.3789 c 16.637,-2.4218 32.528,-7.289 32.903,-27.1015 V 27.6602 c 0,-1.6797 -0.563,-5.4102 1.871,-5.4102 2.984,0 3.547,5.4102 8.035,5.4102 2.426,0 5.422,-2.8008 5.422,-5.4102 0,-5.4219 -6.168,-12.35156 -10.285,-15.51953 C 677.242,1.48828 670.512,0 662.477,0 c -8.043,0 -15.329,2.05078 -21.125,7.85156 -6.543,6.72654 -7.473,14.94924 -7.473,23.73824 v 12.711 c 0,8.5976 -0.191,19.0703 -11.406,20.1797 v 11.039 c 10.093,0.9219 11.406,7.1016 11.406,16.2617 v 22.6098 c 0,9.347 -2.063,13.828 -11.406,17.199 z M 568.266,121.68 c 0,6.922 0.187,8.039 -6.356,10.101 -2.43,0.75 -4.113,2.43 -4.113,5.047 0,5.422 6.168,5.793 6.914,5.793 h 49.351 V 23.7383 c 0,-6.9102 -0.191,-8.0391 6.352,-10.0977 2.434,-0.7422 4.113,-2.4297 4.113,-5.05076 0,-5.41796 -6.168,-5.78906 -6.914,-5.78906 h -52.902 c -0.746,0 -6.914,0.3711 -6.914,5.78906 0,2.62106 1.683,4.30856 4.113,5.05076 6.543,2.0586 6.356,3.1875 6.356,10.0977 V 121.68" /><path
             id="path72"
             style="fill:#2f7faa;fill-opacity:1;fill-rule:nonzero;stroke:none"
             d="m 890.625,23.7383 c 0,-6.9102 -0.187,-8.0391 6.355,-10.0977 2.434,-0.7422 4.114,-2.4297 4.114,-5.05076 0,-5.41796 -6.168,-5.78906 -6.914,-5.78906 h -52.903 c -0.746,0 -6.914,0.3711 -6.914,5.78906 0,2.62106 1.684,4.30856 4.114,5.05076 6.543,2.0586 6.351,3.1875 6.351,10.0977 V 121.68 c 0,6.922 0.192,8.039 -6.351,10.101 -2.43,0.75 -4.114,2.43 -4.114,5.047 0,5.422 6.168,5.793 6.914,5.793 h 52.903 c 0.746,0 6.914,-0.371 6.914,-5.793 0,-2.617 -1.68,-4.297 -4.114,-5.047 -6.542,-2.062 -6.355,-3.179 -6.355,-10.101 V 23.7383" /><path
             id="path74"
             style="fill:#2f7faa;fill-opacity:1;fill-rule:nonzero;stroke:none"
             d="m 1148.46,108.789 c 0,26.731 -15.31,19.633 -15.31,28.223 0,5.238 6.15,5.609 8.03,5.609 h 25.43 c 1.85,0 8.02,-0.371 8.02,-5.609 0,-8.59 -15.33,-1.492 -15.33,-28.223 V 63.3711 h -0.37 L 1148.46,82.25 Z M 1159.3,48.0391 V 2.80078 h -27.85 L 1063.05,120.75 c -2.99,5.238 -3.93,8.039 -10.1,10.09 -3.17,1.121 -5.61,1.871 -5.61,5.988 0,5.602 5.61,5.602 9.54,5.793 h 48.05 z m -97.38,59.4409 h 0.37 l 10.47,-18.6909 v -56.461 c 3,-23.35935 14.96,-16.0664 14.96,-24.10935 0,-5.78906 -7.66,-5.41797 -9.72,-5.41797 h -21.31 c -2.05,0 -9.72,-0.37109 -9.72,5.41797 0,8.04295 11.97,0.75 14.95,24.10935 V 107.48" /><path
             id="path76"
             style="fill:#2f7faa;fill-opacity:1;fill-rule:nonzero;stroke:none"
             d="m 1383.74,13.6406 c 15.13,1.8789 26.71,12.1485 31.77,27.1094 1.31,2.8008 2.42,5.7891 5.78,5.7891 6,0 5.43,-5.5977 5.43,-6.3594 V 2.80078 h -42.98 z m 0,66.5391 c 7.85,2.0703 11.38,9.3515 13.08,16.4609 0.92,3.168 2.05,6.1604 5.98,6.1604 5.8,0 4.86,-6.7307 4.86,-8.2229 V 54.2109 c 0,-1.5 0.94,-8.2304 -4.86,-8.2304 -3.93,0 -5.06,2.9883 -5.98,6.1679 -1.7,7.1016 -5.23,14.3907 -13.08,16.4414 z m 0,62.4413 h 41.68 V 104.68 c 0,-0.942 -0.2,-4.5 -5.81,-4.5 -3.18,0 -4.1,1.879 -5.03,4.679 -4.87,15.141 -14.4,24.301 -30.84,26.922 z m -57.78,0 h 49.36 V 2.80078 h -49.36 c -0.74,0 -6.91,0.3711 -6.91,5.78906 0,2.62106 1.68,4.30856 4.12,5.05076 6.54,2.0586 6.35,3.1875 6.35,10.0977 V 121.68 c 0,6.922 0.19,8.039 -6.35,10.101 -2.44,0.75 -4.12,2.43 -4.12,5.047 0,5.422 6.17,5.793 6.91,5.793" /><path
             id="path78"
             style="fill:#2f7faa;fill-opacity:1;fill-rule:nonzero;stroke:none"
             d="m 1640.1,142.621 h 0.92 c 12.17,0 24.86,0.367 36.09,-5.051 12.52,-6.16 18.87,-16.449 19.07,-30.66 0.37,-21.4881 -13.85,-30.8397 -32.91,-35.3202 v -0.3789 c 16.64,-2.4218 32.54,-7.289 32.91,-27.1015 V 27.6602 c 0,-1.6797 -0.57,-5.4102 1.85,-5.4102 3.01,0 3.56,5.4102 8.05,5.4102 2.42,0 5.41,-2.8008 5.41,-5.4102 0,-5.4219 -6.15,-12.35156 -10.27,-15.51953 C 1694.87,1.48828 1688.13,0 1680.1,0 c -8.04,0 -15.33,2.05078 -21.13,7.85156 -6.54,6.72654 -7.48,14.94924 -7.48,23.73824 v 12.711 c 0,8.5976 -0.18,19.0703 -11.39,20.1797 v 11.039 c 10.08,0.9219 11.39,7.1016 11.39,16.2617 v 22.6098 c 0,9.347 -2.05,13.828 -11.39,17.199 z m -54.22,-20.941 c 0,6.922 0.2,8.039 -6.34,10.101 -2.45,0.75 -4.12,2.43 -4.12,5.047 0,5.422 6.17,5.793 6.91,5.793 h 49.35 V 23.7383 c 0,-6.9102 -0.19,-8.0391 6.35,-10.0977 2.44,-0.7422 4.12,-2.4297 4.12,-5.05076 0,-5.41796 -6.17,-5.78906 -6.91,-5.78906 h -52.91 c -0.74,0 -6.91,0.3711 -6.91,5.78906 0,2.62106 1.67,4.30856 4.12,5.05076 6.54,2.0586 6.34,3.1875 6.34,10.0977 V 121.68" /><path
             id="path80"
             style="fill:#2f7faa;fill-opacity:1;fill-rule:nonzero;stroke:none"
             d="m 1910.86,10.8398 c 8.79,3.1719 9.54,8.7891 9.54,13.461 v 96.8202 c 0,4.68 -0.75,10.289 -9.54,13.457 v 10.844 c 39.63,-3.551 58.13,-35.512 58.13,-72.7111 0,-37.1914 -18.5,-69.16012 -58.13,-72.7109 z m -8.41,123.7382 c -8.79,-3.168 -9.53,-8.777 -9.53,-13.457 V 24.3008 c 0,-4.6719 0.74,-10.2891 9.53,-13.461 L 1902.45,0 c -39.63,3.55078 -58.13,35.5195 -58.13,72.7109 0,37.1991 18.5,69.1601 58.13,72.7111 v -10.844" /></g></g></g></g></svg>